<svg width="2600" height="854" viewBox="0 0 2600 854" fill="none" xmlns="http://www.w3.org/2000/svg">
<rect width="2600" height="854" fill="black"/>
<path d="M981.699 515H951.474V391.738H981.699V417.241H982.88C983.982 412.833 985.792 408.74 988.311 404.962C990.987 401.026 994.529 397.878 998.937 395.517C1003.5 392.998 1009.01 391.738 1015.47 391.738H1022.08V420.311H1012.63C1005.86 420.311 1000.12 421.019 995.395 422.436C990.829 423.695 987.366 425.742 985.005 428.575C982.801 431.251 981.699 434.872 981.699 439.437V515ZM1078.68 517.834C1066.56 517.834 1056.17 515.236 1047.51 510.041C1038.85 504.689 1032.16 497.211 1027.44 487.609C1022.87 477.848 1020.59 466.357 1020.59 453.133C1020.59 440.224 1022.87 428.969 1027.44 419.366C1032 409.606 1038.54 402.128 1047.04 396.933C1055.54 391.581 1065.77 388.905 1077.73 388.905C1090.64 388.905 1101.19 391.738 1109.38 397.406C1117.72 403.073 1123.86 410.629 1127.79 420.074C1131.89 429.362 1133.93 439.673 1133.93 451.008V460.925H1051.99V463.995C1051.99 472.811 1054.51 479.974 1059.55 485.483C1064.59 490.993 1072.07 493.748 1081.98 493.748C1089.38 493.748 1095.52 492.174 1100.4 489.025C1105.28 485.719 1109.61 481.705 1113.39 476.983L1129.68 495.165C1124.65 501.934 1117.72 507.444 1108.9 511.694C1100.24 515.787 1090.17 517.834 1078.68 517.834ZM1078.21 411.574C1072.85 411.574 1068.21 412.833 1064.27 415.352C1060.34 417.713 1057.27 421.098 1055.06 425.505C1053.02 429.756 1051.99 434.715 1051.99 440.382V442.271H1102.53V440.146C1102.53 434.321 1101.58 429.362 1099.69 425.269C1097.8 421.019 1095.05 417.713 1091.43 415.352C1087.81 412.833 1083.4 411.574 1078.21 411.574ZM1206.62 515H1170.73L1129.64 391.738H1159.39L1176.63 444.868L1188.68 488.789H1190.33L1202.37 444.868L1219.14 391.738H1247.94L1206.62 515ZM1269.06 373.792C1262.92 373.792 1258.43 372.375 1255.6 369.542C1252.77 366.551 1251.35 362.93 1251.35 358.68V353.957C1251.35 349.549 1252.77 345.929 1255.6 343.095C1258.43 340.261 1262.92 338.845 1269.06 338.845C1275.2 338.845 1279.68 340.261 1282.52 343.095C1285.35 345.929 1286.77 349.549 1286.77 353.957V358.68C1286.77 362.93 1285.35 366.551 1282.52 369.542C1279.68 372.375 1275.2 373.792 1269.06 373.792ZM1253.95 515V391.738H1284.17V515H1253.95ZM1381.31 515V494.456H1380.13C1377.93 501.54 1373.76 507.208 1367.62 511.458C1361.48 515.708 1354.32 517.834 1346.13 517.834C1335.9 517.834 1327.16 515.315 1319.92 510.277C1312.84 505.24 1307.4 497.92 1303.63 488.317C1299.85 478.557 1297.96 466.829 1297.96 453.133C1297.96 439.437 1299.85 427.867 1303.63 418.421C1307.4 408.819 1312.84 401.499 1319.92 396.461C1327.16 391.424 1335.9 388.905 1346.13 388.905C1354.32 388.905 1361.48 391.03 1367.62 395.28C1373.92 399.373 1378.09 404.962 1380.13 412.046H1381.31V340.261H1411.54V515H1381.31ZM1355.81 492.803C1360.69 492.803 1365.02 492.016 1368.8 490.442C1372.73 488.868 1375.8 486.585 1378.01 483.594C1380.21 480.603 1381.31 476.983 1381.31 472.732V433.534C1381.31 429.598 1380.21 426.135 1378.01 423.144C1375.8 420.153 1372.73 417.87 1368.8 416.296C1365.02 414.565 1360.69 413.699 1355.81 413.699C1348.1 413.699 1341.8 416.375 1336.92 421.727C1332.04 426.922 1329.6 433.928 1329.6 442.743V463.995C1329.6 472.653 1332.04 479.659 1336.92 485.011C1341.8 490.206 1348.1 492.803 1355.81 492.803ZM1482.05 517.834C1469.93 517.834 1459.54 515.236 1450.88 510.041C1442.22 504.689 1435.53 497.211 1430.81 487.609C1426.24 477.848 1423.96 466.357 1423.96 453.133C1423.96 440.224 1426.24 428.969 1430.81 419.366C1435.38 409.606 1441.91 402.128 1450.41 396.933C1458.91 391.581 1469.14 388.905 1481.11 388.905C1494.01 388.905 1504.56 391.738 1512.75 397.406C1521.09 403.073 1527.23 410.629 1531.17 420.074C1535.26 429.362 1537.31 439.673 1537.31 451.008V460.925H1455.37V463.995C1455.37 472.811 1457.89 479.974 1462.92 485.483C1467.96 490.993 1475.44 493.748 1485.36 493.748C1492.76 493.748 1498.89 492.174 1503.77 489.025C1508.66 485.719 1512.98 481.705 1516.76 476.983L1533.06 495.165C1528.02 501.934 1521.09 507.444 1512.28 511.694C1503.62 515.787 1493.54 517.834 1482.05 517.834ZM1481.58 411.574C1476.23 411.574 1471.58 412.833 1467.65 415.352C1463.71 417.713 1460.64 421.098 1458.44 425.505C1456.39 429.756 1455.37 434.715 1455.37 440.382V442.271H1505.9V440.146C1505.9 434.321 1504.96 429.362 1503.07 425.269C1501.18 421.019 1498.42 417.713 1494.8 415.352C1491.18 412.833 1486.77 411.574 1481.58 411.574ZM1598.61 517.834C1586.96 517.834 1576.81 515.236 1568.15 510.041C1559.65 504.689 1553.04 497.211 1548.31 487.609C1543.75 477.848 1541.47 466.357 1541.47 453.133C1541.47 439.91 1543.75 428.575 1548.31 419.13C1553.04 409.527 1559.65 402.128 1568.15 396.933C1576.81 391.581 1586.96 388.905 1598.61 388.905C1610.42 388.905 1620.57 391.581 1629.07 396.933C1637.73 402.128 1644.34 409.527 1648.91 419.13C1653.63 428.575 1655.99 439.91 1655.99 453.133C1655.99 466.357 1653.63 477.848 1648.91 487.609C1644.34 497.211 1637.73 504.689 1629.07 510.041C1620.57 515.236 1610.42 517.834 1598.61 517.834ZM1598.61 493.512C1606.64 493.512 1612.94 491.072 1617.5 486.192C1622.07 481.154 1624.35 473.992 1624.35 464.704V441.799C1624.35 432.511 1622.07 425.427 1617.5 420.547C1612.94 415.667 1606.64 413.227 1598.61 413.227C1590.9 413.227 1584.68 415.667 1579.96 420.547C1575.39 425.427 1573.11 432.511 1573.11 441.799V464.704C1573.11 473.992 1575.39 481.154 1579.96 486.192C1584.68 491.072 1590.9 493.512 1598.61 493.512Z" fill="white"/>
<rect x="2390" y="777.267" width="133.267" height="133.267" transform="rotate(-90 2390 777.267)" fill="white"/>
<mask id="mask0_333_4" style="mask-type:alpha" maskUnits="userSpaceOnUse" x="2400" y="653" width="114" height="116">
<rect x="2400.01" y="768.003" width="114.522" height="113.303" transform="rotate(-90 2400.01 768.003)" fill="#D9D9D9"/>
</mask>
<g mask="url(#mask0_333_4)">
<circle cx="2513.56" cy="768.003" r="98.7495" transform="rotate(-90 2513.56 768.003)" fill="white" stroke="black" stroke-width="27.6457"/>
</g>
</svg>
